<svg width="24" height="24" viewBox="0 0 24 24" fill="none" xmlns="http://www.w3.org/2000/svg">
<path fill-rule="evenodd" clip-rule="evenodd" d="M3.5 0.404785H20.5C22.15 0.404785 23.5 1.75479 23.5 3.40479V20.4048C23.5 22.0548 22.15 23.4048 20.5 23.4048H3.5C1.85 23.4048 0.5 22.0548 0.5 20.4048V3.40479C0.5 1.75479 1.85 0.404785 3.5 0.404785ZM21.5 3.40479C21.5 2.86279 21.042 2.40479 20.5 2.40479H3.5C2.958 2.40479 2.5 2.86279 2.5 3.40479V20.4048C2.5 20.9468 2.958 21.4048 3.5 21.4048H20.5C21.042 21.4048 21.5 20.9468 21.5 20.4048V3.40479Z" fill="#C5C5C5"/>
</svg>
