<svg width="28" height="24" viewBox="0 0 28 24" fill="none" xmlns="http://www.w3.org/2000/svg">
<path d="M7.78505 7.89076L4.95605 10.7198L12.7391 18.5028L26.6711 4.57076L23.8431 1.74176L12.7391 12.8438L7.78505 7.89076Z" fill="#C5C5C5"/>
<path d="M21.5 20.4048C21.5 20.9468 21.042 21.4048 20.5 21.4048H3.5C2.958 21.4048 2.5 20.9468 2.5 20.4048V3.40479C2.5 2.86279 2.958 2.40479 3.5 2.40479H20.408L21.993 0.819785C21.541 0.551327 21.0257 0.408085 20.5 0.404785H3.5C1.85 0.404785 0.5 1.75479 0.5 3.40479V20.4048C0.5 22.0548 1.85 23.4048 3.5 23.4048H20.5C22.15 23.4048 23.5 22.0548 23.5 20.4048V10.5758L21.5 12.5758V20.4048Z" fill="#C5C5C5"/>
</svg>
